<mxfile host="app.diagrams.net" agent="Mozilla/5.0 (Macintosh; Intel Mac OS X 10_15_7) AppleWebKit/605.1.15 (KHTML, like Gecko) Version/18.0.1 Safari/605.1.15" version="24.8.3">
  <diagram name="Page-1" id="yftQJmQo7aOdQ715MIei">
    <mxGraphModel dx="1001" dy="744" grid="1" gridSize="10" guides="1" tooltips="1" connect="1" arrows="1" fold="1" page="1" pageScale="1" pageWidth="850" pageHeight="1100" math="0" shadow="0">
      <root>
        <mxCell id="0" />
        <mxCell id="1" parent="0" />
        <mxCell id="aCFTojnC6SofDdwI8xuQ-2" value="&lt;h1 style=&quot;margin-top: 0px;&quot;&gt;&lt;p style=&quot;font-size: 16px; font-weight: 400; box-sizing: border-box; margin-top: 0px; margin-right: 0px; margin-bottom: var(--iq-gap-md); margin-left: 0px; padding: 0px; font-stretch: inherit; font-size-adjust: inherit; font-kerning: inherit; font-variant-alternates: inherit; font-variant-ligatures: inherit; font-variant-numeric: inherit; font-variant-east-asian: inherit; font-variant-position: inherit; font-feature-settings: inherit; font-optical-sizing: inherit; font-variation-settings: inherit; line-height: 1.5em; caret-color: rgb(46, 56, 63); color: rgb(46, 56, 63);&quot;&gt;&lt;font face=&quot;Helvetica&quot;&gt;Let’s say you are designing a marketplace for your website.&lt;/font&gt;&lt;/p&gt;&lt;p style=&quot;font-size: 16px; font-weight: 400; box-sizing: border-box; margin-top: 0px; margin-right: 0px; margin-bottom: var(--iq-gap-md); margin-left: 0px; padding: 0px; font-stretch: inherit; font-size-adjust: inherit; font-kerning: inherit; font-variant-alternates: inherit; font-variant-ligatures: inherit; font-variant-numeric: inherit; font-variant-east-asian: inherit; font-variant-position: inherit; font-feature-settings: inherit; font-optical-sizing: inherit; font-variation-settings: inherit; line-height: 1.5em; caret-color: rgb(46, 56, 63); color: rgb(46, 56, 63);&quot;&gt;Selling firearms is prohibited by your website’s Terms of Service Agreement (not to mention the laws of your country). To this end, you want to create a system that can automatically detect if a listing on the marketplace is selling a gun.&lt;/p&gt;&lt;p style=&quot;font-size: 16px; font-weight: 400; box-sizing: border-box; margin-top: 0px; margin-right: 0px; margin-bottom: var(--iq-gap-md); margin-left: 0px; padding: 0px; font-stretch: inherit; font-size-adjust: inherit; font-kerning: inherit; font-variant-alternates: inherit; font-variant-ligatures: inherit; font-variant-numeric: inherit; font-variant-east-asian: inherit; font-variant-position: inherit; font-feature-settings: inherit; font-optical-sizing: inherit; font-variation-settings: inherit; line-height: 1.5em; caret-color: rgb(46, 56, 63); color: rgb(46, 56, 63);&quot;&gt;How would you go about doing this?&lt;/p&gt;&lt;/h1&gt;&lt;h1 style=&quot;margin-top: 0px;&quot;&gt;1. Clarifying Questions:&amp;nbsp;&lt;/h1&gt;&lt;h1 style=&quot;margin-top: 0px;&quot;&gt;&lt;ul style=&quot;font-size: 12px;&quot;&gt;&lt;li&gt;&lt;span style=&quot;font-weight: 400; caret-color: rgb(46, 56, 63); color: rgb(46, 56, 63); font-family: Overpass, Helvetica, Arial, sans-serif;&quot;&gt;Do we have labeled data? Let’s assume no, then we need to figure it out to create the dataset&amp;nbsp;&lt;/span&gt;&lt;/li&gt;&lt;li&gt;&lt;span style=&quot;font-weight: 400; caret-color: rgb(46, 56, 63); color: rgb(46, 56, 63); font-family: Overpass, Helvetica, Arial, sans-serif;&quot;&gt;Do we have a list of prohibited firearms? Let’s assume no, then using regex of the text-matched base is not possible&amp;nbsp;&lt;/span&gt;&lt;/li&gt;&lt;li&gt;&lt;span style=&quot;font-weight: 400; caret-color: rgb(46, 56, 63); color: rgb(46, 56, 63); font-family: Overpass, Helvetica, Arial, sans-serif;&quot;&gt;Is this model automatically disabling firearm posts or giving notification to customer service?&lt;/span&gt;&lt;/li&gt;&lt;li&gt;&lt;span style=&quot;font-weight: 400; caret-color: rgb(46, 56, 63); color: rgb(46, 56, 63); font-family: Overpass, Helvetica, Arial, sans-serif;&quot;&gt;Is this model required to perform real-time detection or can be batched?&lt;/span&gt;&lt;br&gt;&lt;/li&gt;&lt;/ul&gt;&lt;div&gt;&lt;h4&gt;&lt;span style=&quot;font-family: inherit; font-size: inherit; font-style: inherit; font-variant-caps: inherit;&quot;&gt;2. Assessing Requirements:&lt;/span&gt;&lt;/h4&gt;&lt;h4 style=&quot;font-size: 12px;&quot;&gt;&lt;ul&gt;&lt;li&gt;&lt;span style=&quot;caret-color: rgb(46, 56, 63); color: rgb(46, 56, 63); font-family: Overpass, Helvetica, Arial, sans-serif; font-weight: 400;&quot;&gt;Title of item&amp;nbsp;&lt;/span&gt;&lt;/li&gt;&lt;li&gt;&lt;span style=&quot;caret-color: rgb(46, 56, 63); color: rgb(46, 56, 63); font-family: Overpass, Helvetica, Arial, sans-serif; font-weight: 400;&quot;&gt;Description of item&amp;nbsp;&lt;/span&gt;&lt;/li&gt;&lt;li&gt;&lt;span style=&quot;caret-color: rgb(46, 56, 63); color: rgb(46, 56, 63); font-family: Overpass, Helvetica, Arial, sans-serif; font-weight: 400;&quot;&gt;Images of item&amp;nbsp;&lt;/span&gt;&lt;/li&gt;&lt;li&gt;&lt;span style=&quot;caret-color: rgb(46, 56, 63); color: rgb(46, 56, 63); font-family: Overpass, Helvetica, Arial, sans-serif; font-weight: 400;&quot;&gt;User profile who sell the item&lt;/span&gt;&lt;br&gt;&lt;/li&gt;&lt;/ul&gt;&lt;/h4&gt;&lt;h4&gt;&lt;span style=&quot;box-sizing: border-box; margin: 0px; padding: 0px; font-style: inherit; font-variant-caps: inherit; font-stretch: inherit; font-size: inherit; font-family: inherit; font-size-adjust: inherit; font-kerning: inherit; font-variant-alternates: inherit; font-variant-ligatures: inherit; font-variant-numeric: inherit; font-variant-east-asian: inherit; font-variant-position: inherit; font-feature-settings: inherit; font-optical-sizing: inherit; font-variation-settings: inherit; line-height: 1.5em;&quot;&gt;3. Solution:&lt;br&gt;&lt;/span&gt;&lt;span style=&quot;box-sizing: border-box; margin: 0px; padding: 0px; font-style: inherit; font-variant-caps: inherit; font-stretch: inherit; font-size: inherit; font-family: inherit; font-size-adjust: inherit; font-kerning: inherit; font-variant-alternates: inherit; font-variant-ligatures: inherit; font-variant-numeric: inherit; font-variant-east-asian: inherit; font-variant-position: inherit; font-feature-settings: inherit; font-optical-sizing: inherit; font-variation-settings: inherit; line-height: 1.5em;&quot;&gt;4. Validation:&lt;br&gt;&lt;/span&gt;&lt;span style=&quot;box-sizing: border-box; margin: 0px; padding: 0px; font-style: inherit; font-variant-caps: inherit; font-stretch: inherit; font-size: inherit; font-family: inherit; font-size-adjust: inherit; font-kerning: inherit; font-variant-alternates: inherit; font-variant-ligatures: inherit; font-variant-numeric: inherit; font-variant-east-asian: inherit; font-variant-position: inherit; font-feature-settings: inherit; font-optical-sizing: inherit; font-variation-settings: inherit; line-height: 1.5em;&quot;&gt;5. Additional Concerns:&lt;/span&gt;&lt;/h4&gt;&lt;/div&gt;&lt;/h1&gt;" style="text;html=1;whiteSpace=wrap;overflow=hidden;rounded=0;" vertex="1" parent="1">
          <mxGeometry x="40" y="40" width="760" height="520" as="geometry" />
        </mxCell>
      </root>
    </mxGraphModel>
  </diagram>
</mxfile>
